<?xml version="1.0" encoding="UTF-8" standalone="no"?>
<svg width="53px" height="74px" viewBox="0 0 53 74" version="1.1" xmlns="http://www.w3.org/2000/svg" xmlns:xlink="http://www.w3.org/1999/xlink" xmlns:sketch="http://www.bohemiancoding.com/sketch/ns">
    <!-- Generator: Sketch 3.3.2 (12043) - http://www.bohemiancoding.com/sketch -->
    <title>Rectangle 2 Copy 2 + @</title>
    <desc>Created with Sketch.</desc>
    <defs></defs>
    <g id="Page-1" stroke="none" stroke-width="1" fill="none" fill-rule="evenodd" sketch:type="MSPage">
        <g id="Rectangle-2-Copy-2-+-@" sketch:type="MSLayerGroup" fill="#000000">
            <g transform="translate(0.500000, 0.000000)" sketch:type="MSShapeGroup">
                <path d="M4.00133569,35.0907259 C11.0081633,27.8686297 18.2129522,26.6710213 25.5913614,26.6710214 C32.9697707,26.6710214 47.8558217,26.467364 50.6377982,35.0907264 C53.978154,45.4449111 51.8055132,73.967901 51.8055132,73.967901 L45.5832792,73.9679025 L44.9394209,47.3646468 L43.626319,47.3646468 L43.626319,73.9679043 L8.89373634,73.9679025 L8.89373634,46.5245601 L7.77159967,46.5245601 L7.77159967,73.9679025 L1.68379129,73.9679025 C1.68379129,73.9679025 -2.99748701,42.3128222 4.00133569,35.0907259 Z" id="Rectangle-2-Copy-2"></path>
                <path d="M33.2156164,18.7416363 C31.8426981,19.0859109 30.574077,18.5550569 29.409715,17.1490582 C28.7414491,18.7898768 27.6688687,19.795449 26.1919414,20.165805 C24.9230321,20.4839983 23.6981934,20.3042282 22.5173886,19.6264893 C21.2457527,18.8966167 20.2546277,17.6844161 19.5439837,15.9898509 C18.6343594,13.8208076 18.56269,11.7038571 19.3289733,9.63893595 C20.1102857,7.44539494 21.5722123,6.08000637 23.714797,5.54272928 C24.9421027,5.23496862 26.2418167,5.6206916 27.6139778,6.69990978 L27.4628625,5.76396964 L29.89666,5.15366765 L30.9959697,13.9421506 C31.0911598,14.7173279 31.1813922,15.2065831 31.2666695,15.4099309 C31.4466993,15.8392207 31.7447276,16.0017004 32.1607635,15.8973747 C32.9720334,15.6939397 33.6184023,15.0699132 34.0998897,14.0252764 C34.766523,12.7094802 34.7350429,11.1817282 34.0054485,9.44197473 C33.0200222,7.09217778 31.3854649,5.44204849 29.1017275,4.49153736 C27.0109789,3.61748327 24.7903366,3.47517831 22.439734,4.06461822 C19.4858795,4.80533032 17.5266781,6.38281062 16.5620709,8.79710643 C15.7107291,10.9332974 15.7540826,13.1197731 16.6921327,15.356599 C17.942866,18.3390336 19.8661954,20.4036622 22.4621785,21.5505467 C24.7232629,22.5566788 27.0914761,22.7493732 29.5668895,22.1286355 C32.4375368,21.4087886 34.5124003,20.1893375 35.7915421,18.4702456 L38.2415218,20.365381 C36.7924819,22.5016301 34.2894462,24.0157241 30.7323397,24.9077084 C27.5288637,25.7110159 24.4427805,25.4236671 21.4739976,24.0456533 C18.1192371,22.5147255 15.6412351,19.8400917 14.0399174,16.0216717 C12.8176098,13.1070197 12.7415814,10.2670365 13.81183,7.501637 C15.0103731,4.32951278 17.5025704,2.26879987 21.2884966,1.31943647 C24.8248013,0.432668462 28.0527923,0.78431171 30.9725665,2.37437677 C33.5687684,3.79587892 35.4637819,5.93003267 36.6576638,8.77690205 C37.5388623,10.8781628 37.6275212,12.9533982 36.9236433,15.0026705 C36.2197654,17.0519428 34.9837688,18.2982523 33.2156164,18.7416363 Z M22.0337989,10.9083386 C21.4996003,12.2658361 21.6162469,13.859626 22.3837424,15.6897563 C22.6490495,16.322394 23.0901301,16.7985796 23.7069976,17.1183275 C24.2330339,17.3859416 24.7456659,17.4571523 25.2449089,17.3319615 C26.3266021,17.0607148 27.1259864,16.1985591 27.6430858,14.7454686 C28.2413223,13.0473 28.3556714,11.7576481 27.9861366,10.8764743 C27.1523143,8.88818456 26.1217658,8.04793263 24.89446,8.3556933 C23.5215417,8.69996794 22.5679976,9.55084121 22.0337989,10.9083386 Z" id="@"></path>
            </g>
        </g>
    </g>
</svg>